<?xml version="1.0" standalone="no"?>
<!DOCTYPE svg PUBLIC "-//W3C//DTD SVG 20010904//EN"
 "http://www.w3.org/TR/2001/REC-SVG-20010904/DTD/svg10.dtd">
<svg version="1.0" xmlns="http://www.w3.org/2000/svg"
 width="128.000000pt" height="128.000000pt" viewBox="0 0 128.000000 128.000000"
 preserveAspectRatio="xMidYMid meet">
<metadata>
Created by potrace 1.14, written by Peter Selinger 2001-2017
</metadata>
<g transform="translate(0.000000,128.000000) scale(0.100000,-0.100000)"
fill="#000000" stroke="none">
<path d="M251 1265 c-104 -32 -194 -123 -231 -231 -18 -52 -20 -86 -20 -394 0
-375 3 -395 65 -485 43 -63 105 -109 181 -135 52 -18 86 -20 394 -20 375 0
395 3 485 65 63 43 109 105 135 181 18 52 20 86 20 394 0 375 -3 395 -65 485
-43 63 -105 109 -181 135 -53 18 -85 20 -398 19 -260 0 -352 -4 -385 -14z
m170 -478 c43 -29 62 -89 55 -175 -9 -108 -43 -142 -140 -142 -97 0 -132 53
-124 191 5 83 24 119 73 139 39 17 101 11 136 -13z m338 10 c20 -25 -9 -37
-91 -37 l-78 0 0 -55 0 -54 83 -3 c65 -2 82 -6 82 -18 0 -12 -17 -16 -82 -18
l-83 -3 0 -69 c0 -63 -2 -70 -20 -70 -19 0 -20 7 -20 163 0 90 3 167 7 170 13
13 190 8 202 -6z m132 -54 c52 -70 47 -71 108 20 30 45 53 58 65 38 4 -5 -16
-42 -44 -82 -27 -40 -50 -76 -50 -79 0 -4 24 -41 54 -83 30 -41 52 -78 49 -81
-18 -17 -44 0 -82 54 -23 32 -45 62 -50 64 -4 3 -29 -24 -54 -59 -31 -43 -54
-65 -67 -65 -11 0 -20 4 -20 9 0 4 25 43 55 85 l56 77 -55 78 c-31 43 -52 81
-49 85 16 15 40 -3 84 -61z"/>
<path d="M285 745 c-22 -21 -25 -33 -25 -103 0 -102 19 -132 84 -132 60 0 79
24 84 105 2 36 1 76 -2 90 -16 65 -94 88 -141 40z"/>
</g>
</svg>
